Coordinates
version=1
nRows=32
nColumns=12
inDegrees=yes

Units are S.I. units (second, meters, Newtons, ...)
Angles are in degrees

endheader
time	SC_y	SC_z	SC_x	AC_y	AC_z	AC_x	GH_y	GH_z	GH_yy	EL_x	PS_y
       0.0              -29.67         0.7491          40.49          55.54           2.92          15.66         -32.19         -5.513          160.0          103.0          145.9
   0.04477              -29.67         0.7492          40.49          55.54          2.919          15.66         -32.19          -5.51          159.9          103.0          145.9
   0.08954              -29.66         0.7494          40.48          55.54          2.918          15.66         -32.19         -5.508          159.9          103.0          145.9
    0.1343              -29.66         0.7495          40.48          55.54          2.917          15.66         -32.19         -5.505          159.9          103.0          145.8
    0.1791              -29.66         0.7496          40.48          55.54          2.916          15.66         -32.19         -5.502          159.9          103.0          145.8
    0.2238              -29.66         0.7498          40.47          55.54          2.915          15.66         -32.19           -5.5          159.9          102.9          145.8
    0.2686              -29.66         0.7499          40.47          55.54          2.914          15.66         -32.19         -5.496          159.8          102.9          145.8
    0.3134              -29.66         0.7501          40.47          55.54          2.913          15.66         -32.18         -5.493          159.8          102.9          145.8
    0.3581              -29.65         0.7502          40.46          55.54          2.912          15.66         -32.18         -5.489          159.8          102.9          145.7
    0.4029              -29.65         0.7504          40.46          55.54           2.91          15.66         -32.18         -5.485          159.8          102.9          145.7
    0.4477              -29.65         0.7506          40.45          55.54          2.909          15.66         -32.18         -5.481          159.7          102.9          145.7
    0.4924              -29.65         0.7508          40.45          55.54          2.907          15.66         -32.18         -5.477          159.7          102.8          145.6
    0.5372              -29.64          0.751          40.44          55.54          2.905          15.66         -32.17         -5.472          159.7          102.8          145.6
     0.582              -29.64         0.7513          40.43          55.54          2.904          15.66         -32.17         -5.467          159.6          102.8          145.6
    0.6268              -29.64         0.7515          40.43          55.54          2.902          15.66         -32.17         -5.461          159.6          102.8          145.5
    0.6715              -29.63         0.7518          40.42          55.54          2.899          15.66         -32.16         -5.455          159.5          102.7          145.5
    0.7163              -29.63         0.7521          40.41          55.54          2.897          15.66         -32.16         -5.448          159.5          102.7          145.5
    0.7611              -29.63         0.7525           40.4          55.54          2.894          15.66         -32.16         -5.441          159.4          102.7          145.4
    0.8058              -29.62         0.7528          40.39          55.54          2.892          15.66         -32.15         -5.433          159.4          102.6          145.4
    0.8506              -29.62         0.7532          40.38          55.54          2.888          15.66         -32.15         -5.424          159.3          102.6          145.3
    0.8954              -29.61         0.7537          40.37          55.54          2.885          15.66         -32.14         -5.415          159.3          102.5          145.2
    0.9401              -29.61         0.7542          40.36          55.54          2.881          15.66         -32.14         -5.404          159.2          102.5          145.2
    0.9849               -29.6         0.7547          40.34          55.54          2.877          15.66         -32.13         -5.392          159.1          102.4          145.1
      1.03              -29.59         0.7553          40.33          55.54          2.873          15.65         -32.13          -5.38          159.0          102.4          145.0
     1.074              -29.58          0.756          40.31          55.54          2.867          15.65         -32.12         -5.365          158.9          102.3          144.9
     1.119              -29.57         0.7567          40.29          55.54          2.862          15.65         -32.11         -5.349          158.8          102.2          144.8
     1.164              -29.56         0.7576          40.27          55.54          2.855          15.65          -32.1         -5.331          158.6          102.1          144.7
     1.209              -29.55         0.7585          40.24          55.54          2.848          15.65         -32.09         -5.311          158.5          102.0          144.6
     1.254              -29.54         0.7595          40.21          55.54           2.84          15.65         -32.08         -5.288          158.3          101.9          144.4
     1.298              -29.52         0.7607          40.18          55.54          2.831          15.65         -32.07         -5.263          158.2          101.8          144.2
     1.343              -29.51         0.7621          40.15          55.54           2.82          15.64         -32.05         -5.233          157.9          101.6          144.0
     1.388              -29.49         0.7637          40.11          55.54          2.808          15.64         -32.03         -5.199          157.7          101.5          143.8
